<svg xmlns="http://www.w3.org/2000/svg" width="54" height="54" fill="none" viewBox="0 0 54 54"><g filter="url(#filter0_di_19_12288)"><circle cx="27" cy="22" r="16" fill="#fff"/></g><g stroke-width=".8" filter="url(#filter1_i_19_12288)"><g clip-path="url(#clip0_19_12288)"><circle cx="27.001" cy="22" r="10.8" fill="#fff" stroke="#DBDBDB"/><path stroke="#DEDEDE" d="M17.4 10v24M19 10v24M20.6 10v24M22.201 10v24M23.8 10v24M25.4 10v24M27 10v24M28.6 10v24M30.201 10v24M31.8 10v24M33.4 10v24M35 10v24M36.6 10v24"/></g><rect width="21.6" height="21.6" x="16.201" y="11.2" stroke="#DADADA" rx="10.8"/></g><defs><filter id="filter0_di_19_12288" width="52.8" height="52.8" x=".6" y=".4" color-interpolation-filters="sRGB" filterUnits="userSpaceOnUse"><feFlood flood-opacity="0" result="BackgroundImageFix"/><feColorMatrix in="SourceAlpha" result="hardAlpha" values="0 0 0 0 0 0 0 0 0 0 0 0 0 0 0 0 0 0 127 0"/><feOffset dy="4.8"/><feGaussianBlur stdDeviation="5.2"/><feComposite in2="hardAlpha" operator="out"/><feColorMatrix values="0 0 0 0 0 0 0 0 0 0 0 0 0 0 0 0 0 0 0.25 0"/><feBlend in2="BackgroundImageFix" result="effect1_dropShadow_19_12288"/><feBlend in="SourceGraphic" in2="effect1_dropShadow_19_12288" result="shape"/><feColorMatrix in="SourceAlpha" result="hardAlpha" values="0 0 0 0 0 0 0 0 0 0 0 0 0 0 0 0 0 0 127 0"/><feOffset dy="-2.4"/><feGaussianBlur stdDeviation="1.2"/><feComposite in2="hardAlpha" k2="-1" k3="1" operator="arithmetic"/><feColorMatrix values="0 0 0 0 0 0 0 0 0 0 0 0 0 0 0 0 0 0 0.25 0"/><feBlend in2="shape" result="effect2_innerShadow_19_12288"/></filter><filter id="filter1_i_19_12288" width="22.4" height="24" x="15.801" y="10.8" color-interpolation-filters="sRGB" filterUnits="userSpaceOnUse"><feFlood flood-opacity="0" result="BackgroundImageFix"/><feBlend in="SourceGraphic" in2="BackgroundImageFix" result="shape"/><feColorMatrix in="SourceAlpha" result="hardAlpha" values="0 0 0 0 0 0 0 0 0 0 0 0 0 0 0 0 0 0 127 0"/><feOffset dy="1.6"/><feGaussianBlur stdDeviation="2"/><feComposite in2="hardAlpha" k2="-1" k3="1" operator="arithmetic"/><feColorMatrix values="0 0 0 0 0 0 0 0 0 0 0 0 0 0 0 0 0 0 0.16 0"/><feBlend in2="shape" result="effect1_innerShadow_19_12288"/></filter><clipPath id="clip0_19_12288"><rect width="22.4" height="22.4" x="15.801" y="10.8" fill="#fff" rx="11.2"/></clipPath></defs></svg>
